/* XPM */
static char *a11943e655a84cd9a85918c8bfa9403fdlSUz1o37K5YiONs[] = {
/* columns rows colors chars-per-pixel */
"64 64 131 2 ",
"   c #39362A",
".  c #3B382D",
"X  c #343936",
"o  c #3C3C34",
"O  c #3A3D38",
"+  c #463823",
"@  c #433D2F",
"#  c #413E33",
"$  c #3D413B",
"%  c #594327",
"&  c #5B462A",
"*  c #59482F",
"=  c #444137",
"-  c #43443C",
";  c #4D473A",
":  c #4C493E",
">  c #554936",
",  c #524B3D",
"<  c #634A2A",
"1  c #6D4F2C",
"2  c #76562E",
"3  c #7F5B30",
"4  c #424641",
"5  c #464B45",
"6  c #4D4B43",
"7  c #464A48",
"8  c #4A4F4A",
"9  c #534F46",
"0  c #4C524D",
"q  c #545147",
"w  c #51544D",
"e  c #4D5251",
"r  c #525652",
"t  c #555A55",
"y  c #585D57",
"u  c #575D5B",
"i  c #595F5B",
"p  c #5D635D",
"a  c #60655F",
"s  c #585F60",
"d  c #596060",
"f  c #616661",
"g  c #656A65",
"h  c #686D67",
"j  c #666D6E",
"k  c #6B6E69",
"l  c #6D726D",
"z  c #74756E",
"x  c #717671",
"c  c #757A75",
"v  c #7A7973",
"b  c #757B78",
"n  c #797E7A",
"m  c #825D31",
"M  c #7C817C",
"N  c #7D827D",
"B  c #7D827E",
"V  c #7E837F",
"C  c #7C817D",
"Z  c #85837C",
"A  c #85837D",
"S  c #86837D",
"D  c #85847C",
"F  c #85847D",
"G  c #86847D",
"H  c #86847C",
"J  c #767F81",
"K  c #7F8480",
"L  c #7D8481",
"P  c #7F898C",
"I  c #808580",
"U  c #808580",
"Y  c #878D87",
"T  c #838986",
"R  c #97958E",
"E  c #8A9699",
"W  c #959B96",
"Q  c #969B96",
"!  c #959C95",
"~  c #969C95",
"^  c #969C96",
"/  c #979C96",
"(  c #979D96",
")  c #969D97",
"_  c #979D97",
"`  c #9AA19A",
"'  c #9BA19B",
"]  c #9BA29B",
"[  c #9CA29B",
"{  c #9BA19C",
"}  c #9CA29C",
"|  c #9BA29B",
" . c #A2A098",
".. c #A6ADA6",
"X. c #A6ADA7",
"o. c #A7ADA7",
"O. c #A7AEA7",
"+. c #A7ADA7",
"@. c #A7AEA8",
"#. c #A8AFA8",
"$. c #ABB2AB",
"%. c #ACB2AB",
"&. c #ACB2AC",
"*. c #ACB3AC",
"=. c #ADB3AC",
"-. c #ACB3AD",
";. c #ADB3AD",
":. c #ACB3AC",
">. c #B3B0A7",
",. c #BCB9B0",
"<. c #CBC8BE",
"1. c #CDC9BE",
"2. c #CCC8BF",
"3. c #CEC9BF",
"4. c #CDC9C0",
"5. c #CFCAC0",
"6. c #CFCBC0",
"7. c #CECBC1",
"8. c #CFCBC1",
"9. c #CFCBC2",
"0. c #CFCCC1",
"q. c #CFCCC2",
"w. c #CFCBC1",
"e. c #D0CBC1",
"r. c #D0CBC2",
"t. c #D1CBC2",
"y. c #D0CCC1",
"u. c #D0CCC2",
"i. c #D1CCC2",
"p. c #D1CCC3",
"a. c #D0CCC2",
/* pixels */
"u.u.u.u.u.u.u.u.u.u.u.u.u.u.u.u.u.u.u.u.u.u.u.u.u.u.u.u.u.u.u.u.u.u.u.u.u.u.u.u.u.u.u.u.u.u.u.u.u.u.u.u.u.u.u.u.u.u.u.u.u.u.u.u.",
"u.u.u.u.u.u.u.u.u.u.u.u.u.u.u.u.u.u.u.u.u.u.u.u.u.u.u.u.u.u.u.u.u.u.u.u.u.u.u.u.u.u.u.u.u.u.u.u.u.u.u.u.u.u.u.u.u.u.u.u.u.u.u.u.",
"u.u.u.u.u.u.u.u.u.u.u.u.u.u.u.u.u.u.u.u.u.u.u.u.u.u.u.u.u.u.u.u.u.u.u.u.u.u.u.u.u.u.u.u.u.u.u.u.u.u.u.u.u.u.u.u.u.u.u.u.u.u.u.u.",
"u.u.u.u.u.u.u.u.u.u.u.u.u.u.u.u.u.u.u.u.u.u.u.u.u.u.u.u.u.u.u.u.u.u.u.u.u.u.u.u.u.u.u.u.u.u.u.u.u.u.u.u.u.u.u.u.u.u.u.u.u.u.u.u.",
"u.u.u.u.u.u.u.u.u.u.u.u.u.u.u.u.u.u.u.u.u.u.u.u.u.u.u.u.u.u.u.u.u.u.u.u.u.u.u.u.u.u.u.u.u.u.u.u.u.u.u.u.u.u.u.u.u.u.u.u.u.u.u.u.",
"u.u.u.u.u.u.u.u.u.u.u.u.u.u.u.u.r.r.u.u.u.u.u.r.u.r.u.u.u.u.u.u.u.u.u.u.u.u.u.u.u.u.u.u.u.u.u.u.u.u.u.u.u.u.u.u.u.u.u.u.u.u.u.u.",
"u.u.u.u.u.u.u.u.u.u.u.u.u.q.u.8.8.r.u.u.u.r.u.u.r.u.r.u.r.r.u.u.u.r.u.u.u.u.u.u.r.u.r.u.r.u.r.r.u.u.u.u.u.u.u.u.u.u.u.u.u.u.u.u.",
"u.u.u.u.u.u.u.u.u.u.u.u.u.8.8.r.8.r.u.r.r.r.r.r.u.r.r.8.r.r.r.r.u.u.u.r.r.r.u.r.r.r.r.r.r.r.8.r.8.u.u.u.u.u.u.u.u.u.u.u.u.u.u.u.",
"u.u.u.u.u.u.u.u.u.u.u.u.u.8.,.S S S S S S S S S S S H S H H H H H H H S H H S S H H H H H H H S >.u.r.u.r.u.r.u.u.u.u.u.u.u.u.u.",
"u.u.u.u.u.u.u.u.u.u.u.3.u.8.v Y ^ ^ ^ ^ ^ ^ ^ ^ ^ ^ ^ ^ ^ ^ ^ ^ ^ ^ ^ ^ ^ ^ ^ ^ ^ ^ W ^ ^ ^ ^ W z r.r.r.r.r.r.u.r.u.u.u.u.u.u.u.",
"u.u.u.u.u.u.u.u.u.u.<.3.8.8.v } *.*.*.*.*.*.*.*.*.*.*.*.*.*.*.*.*.*.*.*.*.*.*.%.*.*.*.*.*.*.*.*.z u.8.u.r.r.r.r.u.u.u.r.r.u.u.u.",
"u.u.u.u.u.u.u.u.u.u.8.8.u.u.v ' *.6 > > > > > > > > > > > > > > > > > > > > > > > > > > > o #.*.z 8.u.r.u.r.r.r.u.u.r.u.u.u.r.u.",
"u.u.u.u.u.u.u.u.u.u.8.8.u.8.v ' *.> m m m m m m m m m m m m m m m m m m m m m m m m m m m + ..*.z u.r.u.u.u.r.u.u.u.r.u.r.u.u.u.",
"u.u.u.u.u.u.u.u.u.u.3.u.u.u.v } *.> m m m m m m m m m m m m m m m m m m m m m m m m m m m + ..*.z r.r.u.u.r.u.u.u.u.r.u.u.u.u.u.",
"u.u.u.u.u.u.u.u.u.u.8.u.u.u.v ' *.> m m m m < & & & & & & & & & & & & & & & & & & m m m m + ..*.z r.u.r.r.u.r.u.u.u.u.u.u.u.u.u.",
"u.u.u.u.u.u.u.u.u.u.r.u.u.u.v ' *.> m m m m = a y t t t w f w g r a t r p 0 f t $ 2 m m m + ..*.z r.r.u.u.r.u.u.u.u.u.u.u.u.u.u.",
"u.u.u.u.u.u.u.u.u.u.8.u.u.u.v ' *.> m m m m q y k f p f p k f k f f f p g f k f 4 2 m m m + ..*.z u.u.u.u.u.r.u.u.u.u.u.u.u.u.u.",
"u.u.u.u.u.u.u.u.u.8.8.u.r.r.v ' *.> m m m m . c p h f p l t b y l p p k p x y l 5 2 m m m + ..*.z r.r.u.r.r.u.u.u.u.r.u.u.u.r.u.",
"u.u.u.u.u.u.u.u.8.8.u.u.r.r.v ' *.> m m m m q r x p g l r V 0 M p g k y M r c y - 2 m m m + ..*.z r.u.u.u.r.u.u.u.u.r.u.u.u.u.u.",
"u.u.u.u.u.u.u.8.8.8.8.u.u.u.v ' *.> m m m m # c y l g p V 5 V r x f p V 5 V y l w 2 m m m + ..*.z r.u.u.u.r.u.r.u.u.u.u.r.u.u.u.",
"8.u.u.u.r.8.8.8.8.r.u.8.u.u.v ' *.> m m m m 6 y x f g x t V 0 c p g b 0 K 0 c p O 2 m m m + ..*.z r.u.u.u.u.r.r.u.u.r.u.u.u.r.u.",
"r.8.r.r.8.8.8.8.8.8.8.r.u.u.v ' *.> m m m m = k f g g p x p c p k k p b t b y l t 2 m m m + ..$.z u.u.r.r.u.u.u.u.u.u.u.u.u.u.u.",
"8.r.8.r.8.8.8.r.8.u.u.u.u.u.v | *.> m m m m = x f f f f f h f k p f k p x p l p 4 2 m m m + ..%.z u.u.u.u.r.u.u.u.u.u.u.r.u.u.u.",
"u.8.8.8.8.8.u.8.r.u.8.8.r.u.v ' *.> m m m m q r x a p l y c p l p a h g g k f g 0 2 m m m + ..*.z r.r.r.r.u.u.u.u.u.u.u.u.r.u.u.",
"8.8.8.u.8.8.r.u.8.u.u.u.r.8.v ' *.> m m m m   V y l l t V 0 M p g l y c p l f p 4 2 m m m + ..*.z r.u.u.u.u.r.r.u.u.u.u.u.u.u.u.",
"u.8.q.8.8.8.8.u.u.u.u.r.r.8.v [ *.> m m m m 9 8 n p f n 8 I 0 c p p V 0 n y l f 5 2 m m m + ..*.z r.u.r.r.u.r.u.u.u.u.u.r.u.u.u.",
"q.q.8.u.u.u.8.u.8.8.u.u.u.8.v } *.> m m m m # b p k l y n 0 n y k c 0 I 0 c p g 8 2 m m m + ..*.z r.r.r.r.r.u.u.u.r.u.r.r.r.r.u.",
"u.u.u.u.u.u.u.u.u.r.u.u.r.8.v ' %.> m m m m : a g p f l y x p l g p c r V r x p $ 2 m m m + ..*.z 8.r.u.u.r.u.u.u.u.u.u.u.u.u.u.",
"u.u.u.u.u.r.r.u.u.u.u.u.u.u.v ' *.> m m m m : f f f p g g g h p p g p x y b y k r 2 m m m + ..$.z r.u.u.u.u.u.u.u.r.u.r.r.u.u.u.",
"u.u.u.u.r.u.r.u.u.r.u.u.u.r.v ' *.> m m m m # x p f l y c y l p p g f p l p l p $ 2 m m m + ..$.z 8.u.r.r.r.r.u.u.u.u.u.u.u.r.u.",
"r.u.u.u.u.u.r.u.u.u.u.r.u.r.v | *.> m m m m q t l h y M 0 V y h g y l p k g a g r 2 m m m + ..*.z r.u.r.u.r.u.u.u.u.u.u.u.u.u.u.",
"r.u.r.u.r.u.u.u.u.u.u.r.r.r.v ' *.> m m m m . c p g n 8 I 0 c p f x 0 n y x f f 4 2 m m m + ..%.z 8.r.r.r.r.u.u.u.u.r.u.u.r.u.u.",
"r.u.u.u.u.u.u.r.r.u.u.u.r.u.v [ *.> m m m m q p k l y n 0 n y l l t V 5 V t l p 4 2 m m m + ..*.z 8.r.u.u.r.r.r.u.r.u.u.u.u.r.u.",
"u.r.u.u.u.r.u.u.u.u.u.r.r.r.v | *.> m m m m : k g p l p x p l f f x r V 0 b y k r 2 m m m + ..$.z 8.r.r.u.u.u.u.u.r.u.u.r.u.u.u.",
"u.r.u.r.u.r.u.r.u.r.r.r.r.r.v [ *.> m m m m : g f f f h g k p f g p x y n y x f O 2 m m m + ..*.z u.u.u.8.r.8.u.u.u.r.u.u.u.u.u.",
"r.u.r.u.u.u.u.u.u.u.u.u.r.8.v ' *.> m m m m < % % % % % % % % % % % % % % % % % % 3 m m m + ..*.z u.u.u.u.u.u.u.u.u.u.r.u.u.u.u.",
"u.u.u.u.r.u.r.u.u.u.u.u.u.r.v [ *.> m m m m m m m m m m m m m m m m m m m m m m m m m m m + @.*.z 8.u.r.u.u.r.u.u.u.r.u.u.u.u.u.",
"u.u.u.u.u.r.u.u.u.u.u.u.r.r.v ' *.> m m m m m m m m m m m m m m m m m m m m m m 1 & & & 2 + ..*.z r.u.u.u.u.u.u.u.r.r.u.u.u.u.u.",
"u.u.u.r.u.r.u.r.u.r.r.u.r.u.v ' *.> m m m m m m m m m m m m m m m m m m m m m m ; b b c * + ..*.z r.r.u.r.u.u.u.u.u.r.u.u.u.u.u.",
"u.u.u.u.u.u.u.u.u.u.u.u.r.r.v ' *.> m m m m m m m m m m m m m m m m m m m m m m ; y f T * + ..*.z r.u.u.u.u.r.u.u.u.r.r.r.u.r.u.",
"r.u.u.r.r.u.u.u.r.u.u.u.r.r.v ' *.> m m m m m m m m m m m m m m m m m m m m m m 8 P J t * + ..*.z u.r.u.r.u.u.r.u.u.r.u.u.r.u.u.",
"u.u.u.u.u.u.u.u.u.u.u.u.r.r.v } *.> m m m m m m m m m m m m m m m m m m m m m < L E E e * + ..*.z r.r.r.u.u.r.u.u.r.u.u.r.u.u.r.",
"r.u.r.r.u.u.u.u.u.u.r.u.u.r.v } *.> m m m m m m m m m m m m m m m m m m m m m 2 j E E e * + ..*.z r.r.u.r.r.r.u.u.u.u.u.u.u.r.u.",
"u.u.u.u.u.r.r.u.u.u.u.u.u.u.v [ *.> m m m m m m m m m m m m m m m m m m m m m m @ r r c * + ..$.z 8.u.r.u.u.r.u.u.u.u.r.u.u.u.u.",
"u.r.u.u.u.u.u.u.r.u.u.u.r.8.v ' *.> m m m m m m m m m m m m m m m m m m m m m m , T T T * + ..:.z 8.r.r.8.u.r.u.u.r.u.u.r.u.u.r.",
"u.u.r.u.u.u.u.u.u.u.u.u.u.r.v } *.> m m m m m m m m m m m m m m m m m m m m m m , K K K * + ..:.z u.8.r.r.u.u.u.u.u.u.u.u.u.u.u.",
"u.r.r.u.r.u.u.r.u.u.u.u.u.r.v } *.> m m m m m m m m m m m m m m m m m m m m m m 1 & & & 2 + ..*.z r.u.8.u.u.u.r.u.r.u.r.8.r.u.u.",
"r.r.u.u.r.u.r.u.r.u.u.r.u.u.v ' *.> m m m m m m m m m m m m m m m m m m m m m m m m m m m + ..*.z r.u.u.u.u.r.u.r.u.u.u.u.u.u.u.",
"u.u.r.u.r.u.u.u.u.u.u.r.r.r.v ' *.> m m m m m m m m m m m m m m m m m m m m m m m m m m m + ..*.z r.r.u.u.u.u.u.u.u.r.u.u.u.u.u.",
"u.r.u.u.r.u.u.u.u.u.u.u.r.u.v } *.> m m m m m m m m m m m m m m m m m m m m m m m m m m m + ..*.z u.u.r.u.u.u.u.u.r.u.u.u.u.u.u.",
"u.r.u.u.u.r.r.u.u.u.u.u.u.r.v | *.> m m m m m m m m m m m m m m m m m m m m m m m m m m m + ..*.z r.u.r.r.u.u.u.u.u.u.u.r.u.r.u.",
"u.u.u.u.u.u.u.u.u.u.u.u.u.r.v } *.> m m m m m m m m m m m m m m m m m m m m m m m m m m m + ..*.z r.r.r.u.u.u.u.u.u.u.r.r.u.u.u.",
"u.u.u.u.u.u.u.u.u.r.u.u.u.r.v } *.> m m m m m m m m m m m m m m m m m m m m m m m m m m m + ..*.z r.r.r.u.u.u.u.u.u.u.u.u.u.u.u.",
"u.u.u.u.u.u.u.u.u.u.u.u.u.u.v ' *.> m m m m m m m m m m m m m m m m m m m m m m m m m m m + ..*.z r.u.r.r.u.u.r.u.r.u.u.r.u.r.u.",
"u.u.u.u.u.u.u.u.u.u.r.u.u.u.v } *.> m m m m m m m m m m m m m m m m m m m m m m m m m m m + ..*.z 8.r.u.u.u.r.r.u.u.u.u.u.u.u.u.",
"u.u.u.u.u.u.u.u.u.u.u.u.r.r.v ' *.> m m m m m m m m m m m m m m m m m m m m m m m m m m m + ..*.z r.u.r.u.r.r.u.u.u.u.r.u.u.u.u.",
"u.u.r.u.r.r.u.r.u.u.u.u.u.u.v ' *.7 d i d s i s p s i i i d i d i d s s s s d i i i s d d X ..*.z u.u.r.u.r.u.u.u.u.r.u.u.u.u.u.",
"u.r.u.u.u.u.u.u.u.u.r.r.u.u.v | :.u E E E E E E E E E E E E E E E E E E E E E E E E E E E 0 ..$.z r.8.u.r.r.u.u.u.u.u.r.u.u.r.u.",
"u.r.u.u.r.u.u.u.r.u.r.u.u.r.v ' :.u E E E E E E E E E E E E E E E E E E E E E E E E E E E 8 ..*.z u.r.8.u.u.r.u.r.u.u.u.u.u.u.u.",
"u.u.u.u.u.u.r.u.r.u.r.r.u.u.v ' :.i E E E E E E E E E E E E E E E E E E E E E E E E E E E 0 ..$.z u.r.r.r.u.u.r.u.u.u.r.u.u.r.u.",
"u.r.u.u.u.u.u.u.u.u.u.u.u.u.v ' *.i E E E E E E E E E E E E E E E E E E E E E E E E E E E 0 ..$.z u.u.u.u.u.u.u.u.u.u.u.u.u.u.u.",
"u.u.u.u.u.r.u.r.r.u.r.r.r.8.v ' *.i E E E E E E E E E E E E E E E E E E E E E E E E E E E 0 ..%.z r.u.u.r.u.u.u.u.u.u.u.u.u.u.u.",
"u.u.u.r.r.u.r.r.u.r.u.r.r.u.v [ *.i E E E E E E E E E E E E E E E E E E E E E E E E E E E 0 ..$.z r.u.u.r.u.r.r.u.u.u.r.r.u.u.u.",
"u.u.u.u.u.u.u.u.u.u.u.u.u.r. .k z f k k k k k k k k k k k k k k k k k k k k k k k k k k k f z z R u.u.r.u.u.u.r.u.u.u.u.u.u.u.u."
};
