/* XPM */
static char *a95d20c8480544b5c8a781845fa31b16s3IuNhdAqTTmRK56[] = {
/* columns rows colors chars-per-pixel */
"64 64 168 2 ",
"   c #000000",
".  c #0D0600",
"X  c #073439",
"o  c #083439",
"O  c #143D41",
"+  c #1B4346",
"@  c #144649",
"#  c #1D4549",
"$  c #1E4C4E",
"%  c #234A4B",
"&  c #284E4E",
"*  c #2C514E",
"=  c #254F52",
"-  c #265052",
";  c #2A5355",
":  c #2E5856",
">  c #235659",
",  c #2C5659",
"<  c #265B5D",
"1  c #2E5A5C",
"2  c #305758",
"3  c #325B5C",
"4  c #395D5C",
"5  c #36605F",
"6  c #295F61",
"7  c #335E61",
"8  c #395F61",
"9  c #2D6265",
"0  c #2D6669",
"q  c #346264",
"w  c #3A6364",
"e  c #366867",
"r  c #356569",
"t  c #3B666A",
"y  c #356B6D",
"u  c #3B6B6D",
"i  c #366D71",
"p  c #3B6E72",
"a  c #377174",
"s  c #3B7275",
"d  c #377479",
"f  c #3D7679",
"g  c #3E7A7D",
"h  c #406462",
"j  c #426B6C",
"k  c #486E6E",
"l  c #4C716E",
"z  c #436E71",
"x  c #4B6F73",
"c  c #447374",
"v  c #4A7475",
"b  c #477877",
"n  c #42767A",
"m  c #4B7678",
"M  c #437A7D",
"N  c #4A7B7D",
"B  c #507574",
"V  c #507679",
"C  c #527C7D",
"Z  c #5A7F7F",
"A  c #6B7777",
"S  c #6B7877",
"D  c #6B7A7A",
"F  c #45807F",
"G  c #4D807F",
"H  c #53817F",
"J  c #5C817F",
"K  c #C99820",
"L  c #3F7C81",
"P  c #447D81",
"I  c #4B7E81",
"U  c #517E81",
"Y  c #527F81",
"T  c #3F8282",
"R  c #478081",
"E  c #438286",
"W  c #458184",
"Q  c #468384",
"!  c #448286",
"~  c #478486",
"^  c #448284",
"/  c #498183",
"(  c #4A8083",
")  c #4F8081",
"_  c #4E8182",
"`  c #4C8283",
"'  c #4F8283",
"]  c #498184",
"[  c #4A8384",
"{  c #4B8384",
"}  c #4D8385",
"|  c #4F8385",
" . c #4C8484",
".. c #4F8485",
"X. c #4D8586",
"o. c #4F8586",
"O. c #4B8384",
"+. c #448489",
"@. c #4F8688",
"#. c #518281",
"$. c #528281",
"%. c #508082",
"&. c #538183",
"*. c #578180",
"=. c #558183",
"-. c #578183",
";. c #558383",
":. c #558582",
">. c #568583",
",. c #518385",
"<. c #548285",
"1. c #558386",
"2. c #578386",
"3. c #518485",
"4. c #538585",
"5. c #508586",
"6. c #528486",
"7. c #518687",
"8. c #558586",
"9. c #538485",
"0. c #588080",
"q. c #588382",
"w. c #598583",
"e. c #5C8483",
"r. c #5A8487",
"t. c #5C8585",
"y. c #5C8785",
"u. c #5C8786",
"i. c #5E8786",
"p. c #5A8584",
"a. c #558886",
"s. c #588887",
"d. c #5A8A87",
"f. c #5D8987",
"g. c #5F8987",
"h. c #5B8886",
"j. c #518688",
"k. c #548589",
"l. c #548688",
"z. c #578788",
"x. c #548688",
"c. c #5B8688",
"v. c #5C8688",
"b. c #598689",
"n. c #55898A",
"m. c #5B8888",
"M. c #5C8889",
"N. c #5E8C88",
"B. c #5B898A",
"V. c #608685",
"C. c #618685",
"Z. c #608986",
"A. c #628987",
"S. c #638A89",
"D. c #658B89",
"F. c #788887",
"G. c #7F918F",
"H. c #678F91",
"J. c #7F9290",
"K. c #859694",
"L. c #899694",
"P. c #869996",
"I. c #889997",
"U. c #879C99",
"Y. c #899B99",
"T. c #969491",
"R. c #8AA09D",
"E. c #8EA3A1",
/* pixels */
"K K K K K K K K K K K K K K K K K K K K K K K K K K K K K K K K K K K K K K K K K K K K K K K K K K K K K K K K K K K K K K K K ",
"K K K K K K K K K K K K K K K K K K K K K K K K K K K K K K K K K K K K K K K K K K K K K K K K K K K K K K K K K K K K K K K K ",
"K K K K K K K K K K K K K K K K K K K K K K K K K K K K K K K K K K K K K K K K K K K K K K K K K K K K K K K K K K K K K K K K ",
"                                                                                                                              . ",
"  n n b N I ;.>.>.H H H $._ N n s n n y n p p n s n n c b b m c c n n s s s s s s s s n p p p c b N N N I U U N M M g g f f n   ",
"  n N                                     N n                                     n M                                     s s   ",
"  M N   ,.s.f.u.f.u.f.s.s.5.5.n p f N p   b N   y N I I $.U C C I N N M M M f f   n M   N I I ' ' ,.8.2.;.;.2.5._ ^ M g   s f   ",
"  P P   _ $.w.u.f.f.u.N.s.8.5.N s f M p   f N   p N N I U U C N N f M M M M M f   M M   P ( ] ' .._ I $.;.;.U I M M M g   f f   ",
"  W ]   N b ;.S.S.Z.u.Z.m.z.5.N f n M p   n n   p N N N $.c.v.2.z.y n M M M g d   P P   ( ......5.N b H M.u.w.$.N M M M   g g   ",
"  ~ ]   N m 0.                    M M p   M n   p N n                     g f s   E (   ] ..j.                    N M M   g P   ",
"  W ]   _ C e.6 6 6 6 6 6 6 6 6 6 f M p   n n   p N M 6 6 6 6 6 6 6 6 6 6 M f f   W P   ' 5.z.6 6 6 6 6 6 6 6 6 6 N n M   g M   ",
"  W ]   $.0.V.                    f M s   n n   i P M                     P M N   P I   ' z.z.                    b c n   f M   ",
"  X.]   b 0.A.6 6 6 6 6 6 6 6 6 6 f P s   n n   y M M 6 6 6 6 6 6 6 6 6 6 ] ( M   ' z.  5.m.M.6 6 6 6 6 6 6 6 6 6 q 1 y   n P   ",
"  X...  u v S.                    s P s   n n   i M n                     ( P M   ..n.  8.B.H.                    t r p   s P   ",
"  ] '   3 3 w 6 6 6 6 6 6 6 6 6 6 n I n   n M   i M f 6 6 6 6 6 6 6 6 6 6 ..( P   I '   $.p.D.6 6 6 6 6 6 6 6 6 6 6 6 s   M (   ",
"  ( $.  1 % %                     N I b   n N   y M y                     ^ P M   N N   U Y V.                    @ > s   M M   ",
"  I $.  3 2 h j k j w 3 1 q b b b I I b   n N   y M i 9 < 6 0 q 6 6 6 r n ^ M M   M n   ;.u.V.V.B 4 2 7 q q 9 < < < 9 s   P M   ",
"  U w.  C C J C.V.Z C v v v I N N ,.,.N   b N   y M g f f f n n n n n n M M g f   N I   w.Z.Z.V.Z m m m b M n f f s f M   M n   ",
"  8.f.  S.S.D.D.A.e.0.C C 8.8.I I 8.$.N   N N   i P ^ ^ W W ( I ( P P P M M n f   M I   ;.w.w.w.0.;.$._ _ ^ P P P P P M   b c   ",
"  w.f.  Z.S.D.A.V.e.;.H ;.;.2.I N $.I N   N I   d W ^ ^ E W W I P P P M M M n n   I U   C 8.8.2.5.5.....X.^ P P P L g M   m l   ",
"  8.w.  Z.S.S.A.V.w.w.H ;.$.$.b b N I N   I I   d W W E W W P M P P P P M M n n   I U   C 8.8.5.5.....X.^ ^ P P P L L M   c l   ",
"  8.w.  Z.A.S.S.A.u.8.w.5.,.5.b c N _ _   ' N   d W W ^ ^ P N M P M M P P M M N   ,.U   $.m.c.5...' ^ ^ P g g L L L L M   c l   ",
"  5.8.  Z.Z.S.D.D.f.8.w.5.,.' M n N 5._   I N   d W P P P P M M P M P P M M M M   j.Y   2.B.c.5.' ( P M g g g L L L L g   n m   ",
"  8.u.  u.u.Z.S.D.s.8.H 5._ ( M M I I I   I I   d P M M M P W ] P ] ^ M M M f s   z.c.  w.m.,._ I P M g g g g g g g L ^   N N   ",
"  s.S.  Z.Z.Z.w.w.H N G O.....( P P P I   I I   s M M M M P P P ] ..( M M M f s   8.m.  p.m.m.,.I P M g g f g L P L L T   ..5.  ",
"  m.M.  Z.S.Z.f.s.8.N ..( ( ^ M P ^ ^ (   N I   p M M P P P I I ] ] ( F M M n s   ;.s.  w.M.c.5.( P P g g f g P P ~ +.E   ^ M   ",
"  s.w.  u.      s.a.....X.] ( P M M P P   n I   i       I ] ] ' ( ( ( ( ^ ^ M n   c.8.  w.      I P P g g g P E W E E E   P P   ",
"  f.w.  w.  T.  8.5.....X.] ( M f M P g   n N   y   T.  I ' ] @.....] ] O.( M N   m.M.  ;.  T.  I N P P ^ P ] W W E ^ E   g P   ",
"  u.w.  w.      8.5...X.] ^ P s i f g d   M N   y       ,.' ' n.a...] ^ ^ P N N   m.D.  ;.      I N P P ^ P P W ^ ^ ^ ^   f P   ",
"  Y C   v C 8.z.5...( ^ P M M y 0 d g d   M N   t z c N ' 5.j.j.5.' ^ M M M N N   8.M.  ;.w.;.m c p n P ^ E P W W ^ ^ ^   d g   ",
"  v j   w u   5...] P M g g g y 0 s M f   M N   3 t   U ,.z.j.] ] I M M M M M _   ;.w.  w.u.  v w 1 r M E +.E E W ^ ^ ^   f g   ",
"  c 3   2     ' ] ^ M g g g M i y s M f   n N   ;     2.m.z.5.] P P P M M M I '   w.f.  u.    k 8 - > f E E +.E E W ^ ^   f M   ",
"  C j   1     I ( P M g g M M s i s M n   N N   3     m 2.5.5.] P P P M g M M _   8.S.  w.    l 4 : e M P P +.+.+.W ^ ^   f M   ",
"  C v   t     _ I M g g g M M s i s n f   I U   t     v ;.5.5.( M P g g g M N I   ;.Z.  0.    B h t b ^ E E E +.~ E P M   f n   ",
"  t =   j     M M M f f g M M s i s n f   I 8.  C     p.m.8._ M P M g g M M N N   8.s.  0.    3 * j N ( ^ T +.^ ^ P M g   s n   ",
"  m z   c     N M M g g g g f p i f M M   ] U   V     C w.z.' M M M g g f M M P   I ,.  s.    j w j b M ^ ^ ^ ^ P g g M   f n   ",
"  c 7   u     ( M M M g g M P d s g P M   I N   V     C U I I M g g g M M P I I   5.5.  z.    w 1 y M ] ^ g g M g g g M   n M   ",
"  c 1   p I   P N M g g g M P f f P W M   I N   m u.  Y U I I M f g M M P I ( I   5.$.  z.8.  t w c I ( M g g g g g g M   M M   ",
"  b p   n N P M M g g g M P P P M P W M   I N   v 0.;.U I _ I M g P P P ( ] ( I   n.8.  $.$._ N N I I M M P g g g g g M   P P   ",
"  b b   N M M M M g g L P W W P P P P M   N N   v Y U I I _ ( P P W W W ] ..X.I   n.8.  _ $.5.' ' ( P M g g g g g g M M   ( (   ",
"  N N   M M M M P P P E E W W P M M M n   N N   v U $.,.' ( ] P ^ E W W X.....I   n.8.  _ ,..._ ( P M g g g g g g P P P   ( (   ",
"  M M   g M P ^ W ^ ^ E E E ^ g f n M n   N N   c $.,.5.5.] ] ^ ^ E E W X.....(   m.8.  G 5.5.( P M g g L g g L P E W W   ^ ^   ",
"  M M   M P E W W ^ ^ ^ ^ L g s d f M n   N N   c ' _ ( ] ] W ^ W ^ W ~ X.5.5._   m.z.  _ 5.,.P M g g g L g g ^ ^ W W W   M P   ",
"  M M   P W W W W ^ L g g g g d i f M f   N N   s ( X.( W W W W ~ W W X...5.5.8.  m.5.  N ' ( M M g g g L L ^ W W W W W   M M   ",
"  P P   ] X.X.W P L g g g g g d i s M s   N N   s ] ] ] W W W +.^ ^ X...X...8.s.  m.5.  N ( ( M M L L P P W +.+.W W ^ ^   g M   ",
"  I ]   ] ( ^ P g g g g g g L d s f n s   N N   s ] ( ^ ^ W W +.^ ^ X...X.' ,.8.  ,.,.  I I I M g L P ^ +.+.+.W W ^ P P   f n   ",
"  ' (   I P M g g g g g g g g d d g n p   b N   s ^ ^ ^ ^ ^ ^ ^ ^ ^ ^ X...5.$._   N N   I I I M M ^ E W +.+.I ^ ^ P P M   d n   ",
"  I I   N N M M f f f f f f f s s f f s   N N   s F M g g P P P P ^ ^ ( ( ( N N   C C   N I I M g g ^ ^ ^ P P P M g g f   s n   ",
"  I N   N N M n f f f f f f f d d f f s   N M   s M g g g L P P g P P M M N b m   C C   N I I P g g g M M M P M g d d f   s n   ",
"  N N   N N n s s s f f f f f f f g g s   n M   s g g g g g g M g g M M N b v c   N N   N I ( P g g g g M M g f d s s s   s c   ",
"  b N   N b c s s s s f s f f f f M M s   n M   a g g g g g g f g n n N N N v c   N N   I I I M M g g g f f s s s s s s   s n   ",
"  b N   b b s                     M M p   f M   i g f                     N v c   b N   N N N                     s s s   s s   ",
"  c m   z j z 6 6 6 6 6 6 6 6 6 6 f n p   f M   y n n 6 6 6 6 6 9 6 6 6 9 b b b   v b   N N N 6 6 6 6 6 6 6 6 6 6 p y p   p s   ",
"  z c   1 7 j                     s s y   s n   y c s                     b b v   b v   b n b                     q 7 r   p c   ",
"  v v   % - w 8 w q t 6 6 6 6 6 6 s s y   s c   r p y q 6 q q 6 6 6 6 6 6 b b c   v v   v b c p , + - 6 6 6 6 6 6 3 , 7   z c   ",
"  z c   # % :                     s s 0   a s   9 y y                     m j w   c v   c c s                     - ; w   z c   ",
"  j j   = 2 j 6 6 6 6 6 6 6 6 6 6 s s r   s y   q y u 6 6 6 6 6 6 6 6 6 6 v j 5   v v   z z u 6 6 6 6 6 6 6 6 6 6 , = 7   c c   ",
"  j t   # + # 6 6 6 6 6 6 $ q y p p p q   y t   7 t w 6 6 6 6 6 6 # & 2 j B j 3   v x   z z t 6 6 6 6 6 6 o X O # + = w   z u   ",
"  t y                                     t t                                     v v                                     y u   ",
"  y y y p y y y y y y y y y y y y t t 7   r r n 6 r t t u u u j u c c v v v j t j z c n u t t t r r r r r y y y y y p i i y y   ",
"                                                                                                                                ",
"                                                                                                                                ",
"D D D D D D D D D D D D D D D D D D D D F.D D D D D D D D D D D D S D D D D D D D D D D D D D D D D D D D D D D D D D D D A A A ",
"U.E.R.Y.P.P.I.I.Y.Y.Y.I.K.G.K.K.K.K.I.I.P.P.P.Y.Y.Y.P.K.J.K.P.P.K.K.L.I.U.Y.Y.U.U.E.R.Y.P.P.I.I.Y.Y.Y.I.K.G.K.K.K.K.I.I.K.L.L.K."
};
